<?xml version="1.0" encoding="UTF-8" standalone="no"?>
<svg
   xmlns:dc="http://purl.org/dc/elements/1.1/"
   xmlns:cc="http://creativecommons.org/ns#"
   xmlns:rdf="http://www.w3.org/1999/02/22-rdf-syntax-ns#"
   xmlns:svg="http://www.w3.org/2000/svg"
   xmlns="http://www.w3.org/2000/svg"
   xmlns:sodipodi="http://sodipodi.sourceforge.net/DTD/sodipodi-0.dtd"
   xmlns:inkscape="http://www.inkscape.org/namespaces/inkscape"
   version="1.1"
   viewBox="0 0 300 100"
   id="svg67"
   sodipodi:docname="OpenBuildsSoftware.svg"
   inkscape:version="1.0.1 (3bc2e813f5, 2020-09-07)"
   width="300"
   height="100">
  <metadata
     id="metadata71">
    <rdf:RDF>
      <cc:Work
         rdf:about="">
        <dc:format>image/svg+xml</dc:format>
        <dc:type
           rdf:resource="http://purl.org/dc/dcmitype/StillImage" />
        <dc:title></dc:title>
      </cc:Work>
    </rdf:RDF>
  </metadata>
  <sodipodi:namedview
     pagecolor="#ffffff"
     bordercolor="#666666"
     borderopacity="1"
     objecttolerance="10"
     gridtolerance="10"
     guidetolerance="10"
     inkscape:pageopacity="0"
     inkscape:pageshadow="2"
     inkscape:window-width="1920"
     inkscape:window-height="1017"
     id="namedview69"
     showgrid="false"
     inkscape:zoom="0.34217878"
     inkscape:cx="845.25279"
     inkscape:cy="247.85555"
     inkscape:window-x="-8"
     inkscape:window-y="-8"
     inkscape:window-maximized="1"
     inkscape:current-layer="text56-6"
     inkscape:document-rotation="0" />
  <defs
     id="defs4">
    <style
       id="style2">
      .cls-1, .cls-2, .cls-3, .cls-4 {
        fill: #fff;
      }

      .cls-2 {
        font-family: SpaceBT-Bold, 'Space Bd BT';
        font-size: 38.7px;
        font-weight: 700;
      }

      .cls-3 {
        letter-spacing: .3em;
      }

      .cls-3, .cls-4 {
        font-family: SegoeUISymbol, 'Segoe UI Symbol';
        font-size: 14.3px;
      }

      .cls-4 {
        letter-spacing: .3em;
      }
    </style>
  </defs>
  <!-- Generator: Adobe Illustrator 28.7.2, SVG Export Plug-In . SVG Version: 1.2.0 Build 154)  -->
  <path
     class="cls-1"
     d="M 61.773358,36.72869 C 54.77898,23.602255 40.406971,19.194839 29.005177,22.548307 15.68712,26.476656 8.3094887,37.87845 8.5969289,50.046751 8.8843691,63.364813 17.507574,73.329405 29.196804,76.587061 42.419052,80.22797 56.982688,73.808472 62.731492,60.298784 c 1.533014,0.862321 2.970215,1.724641 4.503229,2.682775 C 63.114745,73.616846 51.042258,83.485625 35.807928,83.006558 18.848962,82.431678 6.2015941,70.07175 3.7104458,55.316488 0.64441724,37.01613 12.237838,21.7818 27.37635,17.470198 c 15.713396,-4.50323 31.235166,2.874401 38.325357,15.521769 -1.341388,1.245574 -2.586962,2.491148 -3.928349,3.736723 z"
     id="path20-6"
     style="fill:#ffffff;stroke-width:0.958134" />
  <g
     aria-label="OPENBUILDS"
     id="text24-4"
     style="font-weight:700;font-size:38.7px;font-family:SpaceBT-Bold, 'Space Bd BT';fill:#ffffff"
     class="cls-2"
     transform="matrix(0.95813393,0,0,0.95813393,-377.17849,-256.58319)">
    <path
       d="m 466.69518,309.47842 q -1.5873,0 -2.39985,0.81255 -0.81255,0.81255 -0.81255,2.39985 v 10.223 q 0,1.5873 0.81255,2.39985 0.81255,0.81255 2.39985,0.81255 h 7.63418 q 1.58731,0 2.39986,-0.81255 0.81255,-0.81255 0.81255,-2.39985 v -10.223 q 0,-1.5873 -0.81255,-2.39985 -0.81255,-0.81255 -2.39986,-0.81255 z m -0.54799,-5.65005 h 8.71128 q 3.94936,0 6.17915,2.22978 2.22978,2.22979 2.22978,6.16026 v 11.11113 q 0,3.94937 -2.22978,6.19805 -2.22979,2.24868 -6.17915,2.24868 h -8.71128 q -3.93047,0 -6.16026,-2.24868 -2.22978,-2.24868 -2.22978,-6.19805 v -11.11113 q 0,-3.93047 2.22978,-6.16026 2.22979,-2.22978 6.16026,-2.22978 z"
       style="fill:#ffffff"
       id="path317" />
    <path
       d="m 492.3944,309.98862 v 5.57447 h 8.40894 q 1.37944,0 2.09751,-0.548 0.71807,-0.548 0.71807,-1.58731 v -1.32275 q 0,-1.03931 -0.71807,-1.56841 -0.71807,-0.548 -2.09751,-0.548 z m -5.72563,-5.61225 h 14.90933 q 3.89267,0 5.82011,1.6062 1.94634,1.5873 1.94634,4.78081 v 4.02495 q 0,3.19351 -1.94634,4.8186 -1.94633,1.6062 -5.82011,1.6062 h -9.1837 v 10.01514 h -5.72563 z"
       style="fill:#ffffff"
       id="path319" />
    <path
       d="m 520.24782,304.37637 h 13.28423 v 5.61225 h -12.84961 q -1.75737,0 -2.43765,0.68028 -0.66137,0.66137 -0.66137,2.45654 v 1.70068 h 15.94863 v 5.65005 h -15.94863 v 2.00303 q 0,1.77627 0.66137,2.43765 0.66138,0.66137 2.43765,0.66137 h 12.84961 v 5.65005 h -13.28423 q -4.53515,0 -6.4626,-1.92744 -1.92744,-1.94634 -1.92744,-6.50039 v -10.03403 q 0,-4.55406 1.90855,-6.4626 1.92744,-1.92744 6.48149,-1.92744 z"
       style="fill:#ffffff"
       id="path321" />
    <path
       d="m 551.25696,310.02642 4.02495,14.22905 q 0.32124,1.13379 0.66137,1.51172 0.35904,0.35903 1.00152,0.35903 0.69917,0 1.0582,-0.43462 0.37793,-0.43462 0.37793,-1.26606 v -20.04917 h 5.72563 v 20.69165 q 0,3.15571 -1.85185,4.93198 -1.85186,1.77627 -5.15874,1.77627 -3.00454,0 -4.68633,-1.39834 -1.66289,-1.39834 -2.62661,-4.79971 l -4.02495,-14.24795 q -0.32124,-1.11489 -0.68028,-1.47392 -0.34013,-0.37793 -0.98261,-0.37793 -0.71807,0 -1.0771,0.41572 -0.35904,0.41572 -0.35904,1.24717 v 20.08696 h -5.72563 v -20.74834 q 0,-3.13682 1.85186,-4.89419 1.85185,-1.75737 5.15874,-1.75737 3.00454,0 4.66743,1.39834 1.68178,1.39834 2.64551,4.79971 z"
       style="fill:#ffffff"
       id="path323" />
    <path
       d="m 573.38474,309.81855 v 15.94864 h 8.97583 q 1.83296,0 2.58882,-0.66138 0.75586,-0.66138 0.75586,-2.22978 0,-1.56841 -0.75586,-2.192 -0.73696,-0.64248 -2.58882,-0.64248 h -6.25474 v -5.02646 h 6.06578 q 1.79516,0 2.49433,-0.5669 0.71807,-0.58579 0.71807,-2.02192 0,-1.43613 -0.71807,-2.02192 -0.69917,-0.5858 -2.49433,-0.5858 z m -5.72564,-5.44218 h 15.24947 q 4.00605,0 6.06577,1.45503 2.05972,1.45503 2.05972,4.2706 v 2.92896 q 0,1.90854 -1.43614,3.08012 -1.41723,1.15269 -3.81709,1.19048 2.66441,0.13228 4.10054,1.43614 1.43613,1.28496 1.43613,3.55253 v 3.17461 q 0,2.81558 -2.07861,4.28951 -2.07861,1.47392 -6.06577,1.47392 H 567.6591 Z"
       style="fill:#ffffff"
       id="path325" />
    <path
       d="m 594.71887,304.37637 h 5.72563 v 18.53745 q 0,1.5873 0.81255,2.39985 0.83145,0.81255 2.43765,0.81255 h 6.4248 q 1.6062,0 2.41875,-0.81255 0.83145,-0.81255 0.83145,-2.39985 v -18.53745 h 5.72563 v 18.95317 q 0,3.94937 -2.24868,6.19805 -2.22979,2.24868 -6.17915,2.24868 h -7.50191 q -3.94936,0 -6.19804,-2.24868 -2.24868,-2.24868 -2.24868,-6.19805 z"
       style="fill:#ffffff"
       id="path327" />
    <path
       d="m 622.66677,304.37637 h 5.72564 v 26.8519 h -5.72564 z"
       style="fill:#ffffff"
       id="path329" />
    <path
       d="m 632.00164,304.37637 h 5.72564 v 18.10283 q 0,1.75737 0.68027,2.43765 0.68027,0.66137 2.45654,0.66137 h 8.71128 v 5.65005 h -9.127 q -4.55405,0 -6.50039,-1.92744 -1.94634,-1.94634 -1.94634,-6.50039 z"
       style="fill:#ffffff"
       id="path331" />
    <path
       d="m 657.4174,309.98862 v 15.5896 h 9.41045 q 1.6062,0 2.41875,-0.81255 0.83145,-0.81255 0.83145,-2.39985 v -9.127 q 0,-1.6062 -0.83145,-2.41875 -0.83144,-0.83145 -2.41875,-0.83145 z m -5.72563,-5.61225 h 15.68408 q 3.94936,0 6.17915,2.22978 2.24868,2.21089 2.24868,6.16026 v 10.03403 q 0,3.93047 -2.24868,6.17915 -2.22979,2.24868 -6.17915,2.24868 h -15.68408 z"
       style="fill:#ffffff"
       id="path333" />
    <path
       d="m 687.21717,304.37637 h 13.92671 v 5.61225 h -14.04009 q -1.41724,0 -2.1542,0.62359 -0.71807,0.60468 -0.71807,1.81406 0,1.19048 0.71807,1.79517 0.73696,0.60468 2.1542,0.60468 h 6.02798 q 4.34619,0 6.78383,2.1731 2.43765,2.17309 2.43765,6.02798 0,3.85488 -2.43765,6.02798 -2.43764,2.17309 -6.78383,2.17309 h -14.07789 v -5.65005 h 14.21016 q 1.644,0 2.47544,-0.64248 0.85034,-0.64248 0.85034,-1.90854 0,-1.28496 -0.85034,-1.90855 -0.83144,-0.64248 -2.47544,-0.64248 h -6.04687 q -4.04385,0 -6.38702,-2.1542 -2.32426,-2.17309 -2.32426,-5.8957 0,-3.7415 2.32426,-5.8957 2.34317,-2.1542 6.38702,-2.1542 z"
       style="fill:#ffffff"
       id="path335" />
  </g>
  <g
     aria-label="SOFTWARE"
     transform="matrix(1.0048993,0,0,0.91354489,-377.17849,-256.58319)"
     id="text28-3"
     style="font-size:14.3px;font-family:SegoeUISymbol, 'Segoe UI Symbol';letter-spacing:0.3em;fill:#ffffff;stroke-width:1.04881"
     class="cls-4">
    <path
       d="m 565.89736,363.56136 v -1.38252 q 0.23741,0.20947 0.56558,0.37705 0.33516,0.16758 0.69824,0.28628 0.37007,0.11172 0.74014,0.17456 0.37007,0.0628 0.68428,0.0628 1.08227,0 1.61294,-0.398 0.53764,-0.40498 0.53764,-1.15908 0,-0.40498 -0.18154,-0.70522 -0.17456,-0.30025 -0.48877,-0.54463 -0.31421,-0.25137 -0.74712,-0.47481 -0.42593,-0.23042 -0.92168,-0.48178 -0.52368,-0.26534 -0.97754,-0.53765 -0.45386,-0.27231 -0.78901,-0.60049 -0.33516,-0.32817 -0.53067,-0.74014 -0.18852,-0.41894 -0.18852,-0.97753 0,-0.68428 0.30024,-1.18702 0.30025,-0.50971 0.78902,-0.83789 0.48877,-0.32817 1.1102,-0.48877 0.62842,-0.16059 1.27778,-0.16059 1.48028,0 2.15757,0.3561 v 1.31968 q -0.88676,-0.61445 -2.27627,-0.61445 -0.38403,0 -0.76806,0.0838 -0.38404,0.0768 -0.68428,0.25834 -0.30024,0.18155 -0.48877,0.46783 -0.18853,0.28628 -0.18853,0.69824 0,0.38403 0.13965,0.66333 0.14663,0.2793 0.42593,0.50972 0.2793,0.23042 0.6773,0.44687 0.40498,0.21646 0.92866,0.47481 0.53764,0.26533 1.01943,0.55859 0.48179,0.29326 0.84487,0.64936 0.36309,0.35611 0.57256,0.78902 0.21646,0.43291 0.21646,0.9915 0,0.74014 -0.29326,1.25684 -0.28628,0.50972 -0.78204,0.83091 -0.48876,0.32119 -1.13115,0.46084 -0.64238,0.14663 -1.35459,0.14663 -0.2374,0 -0.58652,-0.0419 -0.34912,-0.0349 -0.71221,-0.11172 -0.36308,-0.0698 -0.69126,-0.17456 -0.32119,-0.11172 -0.5167,-0.24438 z"
       style="fill:#ffffff;stroke-width:1.04881"
       id="path338" />
    <path
       d="m 582.2879,364.13392 q -2.12964,0 -3.4144,-1.40347 -1.27779,-1.40347 -1.27779,-3.65181 0,-2.41591 1.30572,-3.85429 1.30571,-1.43838 3.55405,-1.43838 2.07378,0 3.3376,1.39648 1.2708,1.39649 1.2708,3.65181 0,2.45083 -1.29873,3.87524 -1.29873,1.42442 -3.47725,1.42442 z m 0.0838,-9.28662 q -1.57803,0 -2.56255,1.13813 -0.98452,1.13814 -0.98452,2.98848 0,1.85034 0.95659,2.98149 0.96358,1.12417 2.50669,1.12417 1.64785,0 2.59746,-1.07529 0.94961,-1.07529 0.94961,-3.00943 0,-1.983 -0.92168,-3.06528 -0.92168,-1.08227 -2.5416,-1.08227 z"
       style="fill:#ffffff;stroke-width:1.04881"
       id="path340" />
    <path
       d="m 598.40613,355.01487 h -3.91016 v 3.46329 h 3.61689 v 1.05434 h -3.61689 v 4.43384 h -1.17305 v -10.01279 h 5.08321 z"
       style="fill:#ffffff;stroke-width:1.04881"
       id="path342" />
    <path
       d="m 610.51644,355.01487 h -2.89072 v 8.95147 h -1.17305 v -8.95147 h -2.88374 v -1.06132 h 6.94751 z"
       style="fill:#ffffff;stroke-width:1.04881"
       id="path344" />
    <path
       d="m 628.2476,353.95355 -2.82788,10.01279 h -1.37554 l -2.05981,-7.31758 q -0.13267,-0.46782 -0.1606,-1.01943 h -0.0279 q -0.0419,0.5167 -0.18154,1.00547 l -2.07378,7.33154 h -1.36157 l -2.93262,-10.01279 h 1.29175 l 2.12964,7.68066 q 0.13266,0.48179 0.16758,1.00547 h 0.0349 q 0.0349,-0.37007 0.21645,-1.00547 l 2.21343,-7.68066 h 1.12417 l 2.12266,7.73652 q 0.11172,0.398 0.16758,0.93564 h 0.0279 q 0.0279,-0.36308 0.18852,-0.96357 l 2.04585,-7.70859 z"
       style="fill:#ffffff;stroke-width:1.04881"
       id="path346" />
    <path
       d="m 641.77534,363.96634 h -1.29873 l -1.06133,-2.80693 h -4.24531 l -0.99849,2.80693 h -1.30571 l 3.84033,-10.01279 h 1.21494 z m -2.74409,-3.86128 -1.57104,-4.26626 q -0.0768,-0.20947 -0.15362,-0.67031 h -0.0279 q -0.0698,0.42593 -0.16059,0.67031 l -1.55708,4.26626 z"
       style="fill:#ffffff;stroke-width:1.04881"
       id="path348" />
    <path
       d="m 654.71657,363.96634 h -1.39648 l -1.67579,-2.80693 q -0.23042,-0.39102 -0.44687,-0.66333 -0.21646,-0.2793 -0.44688,-0.45386 -0.22343,-0.17456 -0.48877,-0.25137 -0.25835,-0.0838 -0.58652,-0.0838 h -0.96357 v 4.25928 h -1.17305 v -10.01279 h 2.98848 q 0.65634,0 1.20796,0.16757 0.55859,0.1606 0.96357,0.49576 0.41196,0.33515 0.64238,0.83789 0.23042,0.49575 0.23042,1.16606 0,0.52368 -0.16059,0.96358 -0.15362,0.43291 -0.44688,0.77504 -0.28628,0.34214 -0.69824,0.58653 -0.40498,0.2374 -0.9147,0.37007 v 0.0279 q 0.25137,0.11171 0.43291,0.25835 0.18853,0.13964 0.35611,0.33515 0.16757,0.19551 0.32817,0.44688 0.16758,0.24438 0.37007,0.57256 z m -6.00488,-8.95147 v 3.63086 h 1.59199 q 0.43989,0 0.80996,-0.13266 0.37705,-0.13267 0.64937,-0.37705 0.27231,-0.25137 0.42592,-0.60747 0.15362,-0.36309 0.15362,-0.80996 0,-0.80298 -0.52369,-1.24986 -0.51669,-0.45386 -1.50122,-0.45386 z"
       style="fill:#ffffff;stroke-width:1.04881"
       id="path350" />
    <path
       d="m 665.68875,363.96634 h -5.30664 v -10.01279 h 5.0832 v 1.06132 h -3.91016 v 3.33062 h 3.6169 v 1.05435 h -3.6169 v 3.50517 h 4.1336 z"
       style="fill:#ffffff;stroke-width:1.04881"
       id="path352" />
  </g>
  <path
     id="polygon30-1"
     style="fill:#ffffff;stroke-width:0.958134"
     d="m 24.214508,34.045915 -3.832532,3.832535 2.970215,4.024163 -0.766507,1.245574 -1.149761,3.066028 -0.09581,0.670694 -4.982297,0.670694 v 5.461363 l 4.982297,0.670694 0.57488,2.299521 1.437201,2.778589 -2.970215,3.928349 3.832532,3.832536 3.928349,-2.970216 1.820454,0.958134 4.21579,-9.102272 -0.670694,-0.383254 -0.862321,-0.766507 -0.766507,-0.86232 -0.57488,-1.053948 -0.28744,-1.14976 v -1.149761 l 0.09581,-1.245574 0.479067,-1.053947 0.57488,-0.958134 0.862321,-0.862321 0.958134,-0.670694 1.149761,-0.383253 1.14976,-0.191627 1.149761,0.09581 1.149761,0.287441 1.053947,0.479067 0.86232,0.766507 0.766508,0.958134 0.57488,1.053947 0.28744,1.053947 v 1.245574 l -0.191627,1.149761 -0.383253,1.053947 -0.670694,1.053948 -0.766507,0.766507 -1.053947,0.670694 -0.09581,0.09581 4.215789,9.102272 0.479067,-0.191626 1.245575,-0.766508 4.024162,2.970216 3.832536,-3.832536 -3.066029,-3.928349 0.862321,-1.341388 1.14976,-3.066028 0.09581,-0.670694 4.886483,-0.670694 v -5.461363 l -4.886483,-0.670694 -0.574881,-2.203708 -1.4372,-2.874402 2.970215,-3.928349 -3.832536,-3.832535 -3.928349,2.970215 -2.778588,-1.437201 -2.299522,-0.574881 -0.670694,-4.982296 h -5.36555 l -0.670693,4.886483 -0.766507,0.191627 -2.970216,1.149761 -1.341387,0.86232 z"
     class="cls-1" />
  <g
     aria-label="PART STORE"
     transform="scale(1.0488088,0.95346263)"
     id="text56-6"
     style="font-size:14.3px;font-family:SegoeUISymbol, 'Segoe UI Symbol';letter-spacing:0.3em;fill:#000000;stroke-width:1.04881"
     class="cls-4" />
</svg>
